HIERARCHY
ROOT hip
{
  OFFSET 0 0 0
  CHANNELS 6 Xposition Yposition Zposition Zrotation Yrotation Xrotation
  JOINT abdomen
  {
    OFFSET 0 20.6881 -0.73152
    CHANNELS 3 Zrotation Xrotation Yrotation
    JOINT chest
    {
      OFFSET 0 11.7043 -0.48768
      CHANNELS 3 Zrotation Xrotation Yrotation
      JOINT neck
      {
        OFFSET 0 22.1894 -2.19456
        CHANNELS 3 Zrotation Xrotation Yrotation
        JOINT head
        {
          OFFSET -0.24384 7.07133 1.2192
          CHANNELS 3 Zrotation Xrotation Yrotation
          JOINT leftEye
          {
            OFFSET 4.14528 8.04674 8.04672
            CHANNELS 3 Zrotation Xrotation Yrotation
            End Site
            {
              OFFSET 1 0 0
            }
          }
          JOINT rightEye
          {
            OFFSET -3.6576 8.04674 8.04672
            CHANNELS 3 Zrotation Xrotation Yrotation
            End Site
            {
              OFFSET 1 0 0
            }
          }
        }
      }
      JOINT rCollar
      {
        OFFSET -2.68224 19.2634 -4.8768
        CHANNELS 3 Zrotation Xrotation Yrotation
        JOINT rShldr
        {
          OFFSET -8.77824 -1.95073 1.46304
          CHANNELS 3 Zrotation Xrotation Yrotation
          JOINT rForeArm
          {
            OFFSET -28.1742 -1.7115 0.48768
            CHANNELS 3 Zrotation Xrotation Yrotation
            JOINT rHand
            {
              OFFSET -22.5879 0.773209 7.07136
              CHANNELS 3 Zrotation Xrotation Yrotation
              JOINT rThumb1
              {
                OFFSET -1.2192 -0.487915 3.41376
                CHANNELS 3 Zrotation Xrotation Yrotation
                JOINT rThumb2
                {
                  OFFSET -3.37035 -0.52449 3.41376
                  CHANNELS 3 Zrotation Xrotation Yrotation
                  End Site
                  {
                    OFFSET -1.78271 -1.18214 1.43049
                  }
                }
              }
              JOINT rIndex1
              {
                OFFSET -7.75947 0.938293 5.60832
                CHANNELS 3 Zrotation Xrotation Yrotation
                JOINT rIndex2
                {
                  OFFSET -2.54057 -0.884171 1.56538
                  CHANNELS 3 Zrotation Xrotation Yrotation
                  End Site
                  {
                    OFFSET -1.62519 -0.234802 1.16502
                  }
                }
              }
              JOINT rMid1
              {
                OFFSET -8.24714 1.18213 3.41376
                CHANNELS 3 Zrotation Xrotation Yrotation
                JOINT rMid2
                {
                  OFFSET -3.10165 -0.590103 1.0647
                  CHANNELS 3 Zrotation Xrotation Yrotation
                  End Site
                  {
                    OFFSET -2.48547 -0.328903 0.83742
                  }
                }
              }
              JOINT rRing1
              {
                OFFSET -8.82822 0.546677 1.51678
                CHANNELS 3 Zrotation Xrotation Yrotation
                JOINT rRing2
                {
                  OFFSET -2.60934 -0.819778 -0.0198488
                  CHANNELS 3 Zrotation Xrotation Yrotation
                  End Site
                  {
                    OFFSET -2.33842 -0.294052 0.168128
                  }
                }
              }
              JOINT rPinky1
              {
                OFFSET -8.27202 -0.0477905 -0.4584
                CHANNELS 3 Zrotation Xrotation Yrotation
                JOINT rPinky2
                {
                  OFFSET -1.82734 -0.647385 -0.700984
                  CHANNELS 3 Zrotation Xrotation Yrotation
                  End Site
                  {
                    OFFSET -1.69225 -0.51767 -0.607171
                  }
                }
              }
            }
          }
        }
      }
      JOINT lCollar
      {
        OFFSET 2.68224 19.2634 -4.8768
        CHANNELS 3 Zrotation Xrotation Yrotation
        JOINT lShldr
        {
          OFFSET 8.77824 -1.95073 1.46304
          CHANNELS 3 Zrotation Xrotation Yrotation
          JOINT lForeArm
          {
            OFFSET 28.1742 -1.7115 0.48768
            CHANNELS 3 Zrotation Xrotation Yrotation
            JOINT lHand
            {
              OFFSET 22.5879 0.773209 7.07136
              CHANNELS 3 Zrotation Xrotation Yrotation
              JOINT lThumb1
              {
                OFFSET 1.2192 -0.487915 3.41376
                CHANNELS 3 Zrotation Xrotation Yrotation
                JOINT lThumb2
                {
                  OFFSET 3.37035 -0.52449 3.41376
                  CHANNELS 3 Zrotation Xrotation Yrotation
                  End Site
                  {
                    OFFSET 1.78271 -1.18214 1.43049
                  }
                }
              }
              JOINT lIndex1
              {
                OFFSET 7.75947 0.938293 5.60832
                CHANNELS 3 Zrotation Xrotation Yrotation
                JOINT lIndex2
                {
                  OFFSET 2.54057 -0.884171 1.56538
                  CHANNELS 3 Zrotation Xrotation Yrotation
                  End Site
                  {
                    OFFSET 1.62519 -0.234802 1.16502
                  }
                }
              }
              JOINT lMid1
              {
                OFFSET 8.24714 1.18213 3.41376
                CHANNELS 3 Zrotation Xrotation Yrotation
                JOINT lMid2
                {
                  OFFSET 3.10165 -0.590103 1.0647
                  CHANNELS 3 Zrotation Xrotation Yrotation
                  End Site
                  {
                    OFFSET 2.48547 -0.328903 0.83742
                  }
                }
              }
              JOINT lRing1
              {
                OFFSET 8.82822 0.546677 1.51678
                CHANNELS 3 Zrotation Xrotation Yrotation
                JOINT lRing2
                {
                  OFFSET 2.60934 -0.819778 -0.0198488
                  CHANNELS 3 Zrotation Xrotation Yrotation
                  End Site
                  {
                    OFFSET 2.33842 -0.294052 0.168128
                  }
                }
              }
              JOINT lPinky1
              {
                OFFSET 8.27202 -0.0477905 -0.4584
                CHANNELS 3 Zrotation Xrotation Yrotation
                JOINT lPinky2
                {
                  OFFSET 1.82734 -0.647385 -0.700984
                  CHANNELS 3 Zrotation Xrotation Yrotation
                  End Site
                  {
                    OFFSET 1.69225 -0.51767 -0.607171
                  }
                }
              }
            }
          }
        }
      }
    }
  }
  JOINT rButtock
  {
    OFFSET -8.77824 4.35084 1.2192
    CHANNELS 3 Zrotation Xrotation Yrotation
    JOINT rThigh
    {
      OFFSET 0 -1.70687 -2.19456
      CHANNELS 3 Zrotation Xrotation Yrotation
      JOINT rShin
      {
        OFFSET 0 -36.8199 0.73152
        CHANNELS 3 Zrotation Xrotation Yrotation
        JOINT rFoot
        {
          OFFSET 0.73152 -45.1104 -5.12064
          CHANNELS 3 Zrotation Xrotation Yrotation
          End Site
          {
            OFFSET -1.1221 -3.69964 12.103
          }
        }
      }
    }
  }
  JOINT lButtock
  {
    OFFSET 8.77824 4.35084 1.2192
    CHANNELS 3 Zrotation Xrotation Yrotation
    JOINT lThigh
    {
      OFFSET 0 -1.70687 -2.19456
      CHANNELS 3 Zrotation Xrotation Yrotation
      JOINT lShin
      {
        OFFSET 0 -36.8199 0.73152
        CHANNELS 3 Zrotation Xrotation Yrotation
        JOINT lFoot
        {
          OFFSET -0.73152 -45.1104 -5.12064
          CHANNELS 3 Zrotation Xrotation Yrotation
          End Site
          {
            OFFSET 1.1221 -3.69964 12.103
          }
        }
      }
    }
  }
}
MOTION
Frames:	4
Frame Time:	0.00833333
-52.4288 85.4272 -79.2808 0.0 0.0 0.0 1.74075 -0.00337333 0.047555 0.480624 0.000939366 0.0832336 6.00707e-14 7.95139e-16 -2.73329e-16 1.80121e-13 3.18055e-15 -6.74004e-16 -0.0 0.0 0.0 -0.0 0.0 0.0 3.0065e-14 -1.54524e-16 0.0 6.32742e-13 -2.84511e-15 3.97569e-16 1.08821e-11 -3.35906e-12 -1.59028e-13 1.24518e-10 2.68573e-12 -2.22639e-13 2.93735e-10 -1.46741e-12 -8.30125e-13 5.07258e-10 -2.53808e-12 -1.43364e-12 2.93738e-10 -1.46862e-12 -8.36486e-13 7.73091 5.47488 0.417314 2.93734e-10 -1.46802e-12 -8.20583e-13 2.90554 0.965183 0.102902 2.93737e-10 -1.46743e-12 -8.26149e-13 10.2786 0.731801 0.0259123 2.9373e-10 -1.46504e-12 -8.11041e-13 2.22167 -0.733487 -0.20892 2.98706e-14 -1.55689e-16 -2.98177e-16 6.30704e-13 -3.37313e-15 -1.19271e-15 1.08827e-11 3.14616e-12 -1.39944e-13 1.24565e-10 -3.84728e-12 -2.19458e-13 2.93832e-10 -1.52141e-12 -8.17403e-13 5.07457e-10 -2.62714e-12 -1.41853e-12 2.93828e-10 -1.52269e-12 -8.14222e-13 -7.73091 5.47488 -0.417314 2.93833e-10 -1.5218e-12 -8.20583e-13 -2.90554 0.965183 -0.102902 2.9383e-10 -1.5217e-12 -8.15017e-13 -10.2786 0.731801 -0.0259123 2.93838e-10 -1.51871e-12 -8.20583e-13 -2.22167 -0.733487 0.20892 -2.03217e-16 0.0 -3.88251e-19 1.78274 -6.93916 -0.172437 0.00357184 7.0059 0.0919083 -0.484432 -0.071328 0.0535391 2.03217e-16 0.0 3.88251e-19 0.87084 -1.92398 0.00260034 0.00878008 -2.07863 0.0722319 0.449388 3.99793 -0.131044
-44.71 84.5914 -86.6605 -141.821 88.5427 -138.881 2.55369 1.3352 -0.100574 0.866369 -1.62938 0.112444 -1.85333 -1.903 -1.28945 1.98928 4.75366 -1.80009 -0.0 0.0 0.0 -0.0 0.0 0.0 2.30051e-14 1.88384e-13 -3.9788e-15 20.432 6.20522 -1.44743 -4.35937 -2.00931 6.77778 0.0690662 5.83518 0.804799 -1.14286e-10 -2.77802e-10 3.84104e-10 -1.91033e-10 -4.79508e-10 6.6965e-10 -1.14285e-10 -2.778e-10 3.841e-10 7.73091 5.47488 0.417314 -1.14286e-10 -2.778e-10 3.8411e-10 2.90554 0.965183 0.102902 -1.14284e-10 -2.77799e-10 3.84107e-10 10.2786 0.731801 0.0259123 -1.14289e-10 -2.77797e-10 3.8412e-10 2.22167 -0.733487 -0.20892 2.28279e-14 1.88384e-13 -4.27931e-15 -22.9167 6.4316 0.515351 3.84027 -1.67564 -6.07126 -0.0498694 -4.95742 0.687336 -3.64632e-11 -5.75036e-11 -6.34426e-10 -5.64693e-11 -1.01813e-10 -1.09939e-09 -3.64675e-11 -5.75044e-11 -6.34421e-10 -7.73091 5.47488 -0.417314 -3.64623e-11 -5.75056e-11 -6.34433e-10 -2.90554 0.965183 -0.102902 -3.64652e-11 -5.75045e-11 -6.34425e-10 -10.2786 0.731801 -0.0259123 -3.64592e-11 -5.75019e-11 -6.34433e-10 -2.22167 -0.733487 0.20892 -2.03217e-16 0.0 -3.88251e-19 0.0825017 -5.83831 -1.48853 0.00727182 7.75563 0.12788 -0.603695 -2.71607 -4.09331 2.03217e-16 0.0 3.88251e-19 3.36259 -3.77857 -3.24724 0.0128927 3.06833 -0.0487608 0.68165 -0.866776 1.51136
-44.6741 84.5882 -86.6656 -142.617 88.5455 -139.657 3.42001 2.74846 -0.256216 1.27668 -3.35242 0.143778 -3.90747 -3.91199 -2.65781 4.42471 9.76215 -3.74549 -0.0 0.0 0.0 -0.0 0.0 0.0 1.55774e-14 4.02673e-13 -8.29926e-15 42.3801 12.7512 -3.03621 -8.45748 -4.04162 13.9735 -0.0397588 11.9982 1.68357 -6.15727e-10 -6.24263e-10 8.62394e-10 -1.04917e-09 -1.0776e-09 1.50367e-09 -6.15726e-10 -6.24259e-10 8.62392e-10 7.73091 5.47488 0.417314 -6.15725e-10 -6.24259e-10 8.62396e-10 2.90554 0.965183 0.102902 -6.15724e-10 -6.24256e-10 8.62397e-10 10.2786 0.731801 0.0259123 -6.15727e-10 -6.24256e-10 8.62406e-10 2.22167 -0.733487 -0.20892 1.54154e-14 4.02672e-13 -8.60365e-15 -47.2725 13.2182 1.08444 7.51063 -3.38054 -12.4973 0.0285831 -10.1881 1.4302 -4.21681e-10 -1.27236e-10 -1.42597e-09 -7.13575e-10 -2.25297e-10 -2.47095e-09 -4.21686e-10 -1.27236e-10 -1.42597e-09 -7.73091 5.47488 -0.417314 -4.2168e-10 -1.27239e-10 -1.42598e-09 -2.90554 0.965183 -0.102902 -4.21683e-10 -1.27237e-10 -1.42597e-09 -10.2786 0.731801 -0.0259123 -4.21678e-10 -1.27235e-10 -1.42598e-09 -2.22167 -0.733487 0.20892 -2.03217e-16 0.0 -3.88251e-19 -1.65731 -4.67695 -2.87267 0.0101456 8.54794 0.166051 -1.14593 -5.46344 -8.50681 2.03217e-16 0.0 3.88251e-19 5.76987 -5.71469 -6.69959 0.0410528 8.50679 -0.178374 1.23157 -5.99818 3.26603
-44.6398 84.5866 -86.6738 -143.901 88.5444 -140.932 4.20037 4.01224 -0.397725 1.64287 -4.89 0.171351 -5.81781 -5.69741 -3.88545 6.88646 14.2038 -5.55192 -0.0 0.0 0.0 -0.0 0.0 0.0 8.88553e-15 5.65462e-13 -1.19364e-14 62.2793 18.5668 -4.55434 -11.6793 -5.69124 20.4259 -0.304701 17.4914 2.5184 -9.30329e-10 -8.3047e-10 1.15397e-09 -1.58761e-09 -1.43345e-09 2.01182e-09 -9.30329e-10 -8.30464e-10 1.15397e-09 7.73091 5.47488 0.417314 -9.30326e-10 -8.30465e-10 1.15397e-09 2.90554 0.965183 0.102902 -9.30326e-10 -8.30461e-10 1.15397e-09 10.2786 0.731801 0.0259123 -9.30328e-10 -8.30461e-10 1.15398e-09 2.22167 -0.733487 -0.20892 8.74243e-15 5.65462e-13 -1.22416e-14 -69.1148 19.2884 1.62771 10.4723 -4.80158 -18.2723 0.217642 -14.8635 2.12544 -6.97054e-10 -1.69468e-10 -1.90164e-09 -1.18432e-09 -3.00184e-10 -3.29534e-09 -6.97059e-10 -1.69468e-10 -1.90163e-09 -7.73091 5.47488 -0.417314 -6.97053e-10 -1.69473e-10 -1.90166e-09 -2.90554 0.965183 -0.102902 -6.97057e-10 -1.6947e-10 -1.90164e-09 -10.2786 0.731801 -0.0259123 -6.97053e-10 -1.69468e-10 -1.90166e-09 -2.22167 -0.733487 0.20892 -2.03217e-16 0.0 -3.88251e-19 -3.16607 -3.63308 -4.10833 0.0118096 9.25507 0.200294 -1.98988 -7.83874 -12.4918 2.03217e-16 0.0 3.88251e-19 7.71385 -7.39744 -9.80813 0.0875183 13.3621 -0.298523 1.99183 -10.5596 4.8778
